<svg width="893" height="841" viewBox="0 0 893 841" fill="none" xmlns="http://www.w3.org/2000/svg">
<path d="M204.3 142.6C204.3 153.133 202.467 162.867 198.8 171.8C195.2 180.667 190.1 188.367 183.5 194.9C176.9 201.367 168.933 206.433 159.6 210.1C150.333 213.7 140.033 215.5 128.7 215.5H72.1V69.8H128.7C140.033 69.8 150.333 71.6333 159.6 75.3C168.933 78.9667 176.9 84.0333 183.5 90.5C190.1 96.9667 195.2 104.667 198.8 113.6C202.467 122.467 204.3 132.133 204.3 142.6ZM169.7 142.6C169.7 135.4 168.767 128.9 166.9 123.1C165.033 117.3 162.333 112.4 158.8 108.4C155.333 104.333 151.067 101.233 146 99.1C140.933 96.9 135.167 95.8 128.7 95.8H106.1V189.5H128.7C135.167 189.5 140.933 188.433 146 186.3C151.067 184.1 155.333 181 158.8 177C162.333 172.933 165.033 168 166.9 162.2C168.767 156.4 169.7 149.867 169.7 142.6ZM258.248 95.8V129.8H304.048V154.8H258.248V189.5H318.048V215.5H224.248V69.8H318.048V95.8H258.248ZM419.397 99.4C418.397 101 417.33 102.2 416.197 103C415.13 103.8 413.73 104.2 411.997 104.2C410.464 104.2 408.797 103.733 406.997 102.8C405.264 101.8 403.264 100.7 400.997 99.5C398.797 98.3 396.264 97.2333 393.397 96.3C390.53 95.3 387.264 94.8 383.597 94.8C377.264 94.8 372.53 96.1667 369.397 98.9C366.33 101.567 364.797 105.2 364.797 109.8C364.797 112.733 365.73 115.167 367.597 117.1C369.464 119.033 371.897 120.7 374.897 122.1C377.964 123.5 381.43 124.8 385.297 126C389.23 127.133 393.23 128.433 397.297 129.9C401.364 131.3 405.33 132.967 409.197 134.9C413.13 136.833 416.597 139.3 419.597 142.3C422.664 145.3 425.13 148.967 426.997 153.3C428.864 157.567 429.797 162.733 429.797 168.8C429.797 175.533 428.63 181.833 426.297 187.7C423.964 193.567 420.564 198.7 416.097 203.1C411.697 207.433 406.23 210.867 399.697 213.4C393.23 215.867 385.864 217.1 377.597 217.1C373.064 217.1 368.43 216.633 363.697 215.7C359.03 214.767 354.497 213.467 350.097 211.8C345.697 210.067 341.564 208.033 337.697 205.7C333.83 203.367 330.464 200.767 327.597 197.9L337.597 182.1C338.397 180.967 339.43 180.033 340.697 179.3C342.03 178.5 343.464 178.1 344.997 178.1C346.997 178.1 348.997 178.733 350.997 180C353.064 181.267 355.364 182.667 357.897 184.2C360.497 185.733 363.464 187.133 366.797 188.4C370.13 189.667 374.064 190.3 378.597 190.3C384.73 190.3 389.497 188.967 392.897 186.3C396.297 183.567 397.997 179.267 397.997 173.4C397.997 170 397.064 167.233 395.197 165.1C393.33 162.967 390.864 161.2 387.797 159.8C384.797 158.4 381.364 157.167 377.497 156.1C373.63 155.033 369.664 153.867 365.597 152.6C361.53 151.267 357.564 149.667 353.697 147.8C349.83 145.867 346.364 143.367 343.297 140.3C340.297 137.167 337.864 133.3 335.997 128.7C334.13 124.033 333.197 118.3 333.197 111.5C333.197 106.033 334.297 100.7 336.497 95.5C338.697 90.3 341.93 85.6667 346.197 81.6C350.464 77.5333 355.697 74.3 361.897 71.9C368.097 69.4333 375.197 68.2 383.197 68.2C387.664 68.2 391.997 68.5667 396.197 69.3C400.464 69.9667 404.497 71 408.297 72.4C412.097 73.7333 415.63 75.3667 418.897 77.3C422.23 79.1667 425.197 81.3 427.797 83.7L419.397 99.4ZM483.639 215.5H449.639V69.8H483.639V215.5ZM581.748 140H633.548V201.5C626.082 206.967 618.115 210.933 609.648 213.4C601.248 215.867 592.448 217.1 583.248 217.1C571.248 217.1 560.315 215.233 550.448 211.5C540.648 207.7 532.248 202.5 525.248 195.9C518.248 189.233 512.848 181.367 509.048 172.3C505.248 163.167 503.348 153.267 503.348 142.6C503.348 131.733 505.148 121.767 508.748 112.7C512.348 103.567 517.482 95.7 524.148 89.1C530.882 82.5 538.982 77.3667 548.448 73.7C557.982 70.0333 568.615 68.2 580.348 68.2C586.415 68.2 592.115 68.7 597.448 69.7C602.782 70.7 607.682 72.0667 612.148 73.8C616.682 75.5333 620.815 77.6 624.548 80C628.282 82.4 631.615 85 634.548 87.8L624.748 102.7C623.215 105.033 621.215 106.467 618.748 107C616.348 107.533 613.748 106.933 610.948 105.2C608.282 103.6 605.748 102.233 603.348 101.1C601.015 99.9 598.615 98.9333 596.148 98.2C593.682 97.4667 591.082 96.9333 588.348 96.6C585.615 96.2667 582.548 96.1 579.148 96.1C572.815 96.1 567.115 97.2333 562.048 99.5C556.982 101.7 552.648 104.833 549.048 108.9C545.515 112.967 542.782 117.867 540.848 123.6C538.915 129.267 537.948 135.6 537.948 142.6C537.948 150.333 539.015 157.2 541.148 163.2C543.282 169.2 546.282 174.267 550.148 178.4C554.082 182.533 558.748 185.7 564.148 187.9C569.615 190.033 575.648 191.1 582.248 191.1C586.315 191.1 589.982 190.7 593.248 189.9C596.582 189.1 599.815 188.033 602.948 186.7V164.6H588.548C586.415 164.6 584.748 164.033 583.548 162.9C582.348 161.767 581.748 160.333 581.748 158.6V140ZM783.48 69.8V215.5H765.88C763.28 215.5 761.08 215.1 759.28 214.3C757.546 213.433 755.813 211.967 754.08 209.9L685.38 123C685.646 125.6 685.813 128.133 685.88 130.6C686.013 133 686.08 135.267 686.08 137.4V215.5H656.28V69.8H674.08C675.546 69.8 676.78 69.8667 677.78 70C678.78 70.1333 679.68 70.4 680.48 70.8C681.28 71.1333 682.046 71.6333 682.78 72.3C683.513 72.9667 684.346 73.8667 685.28 75L754.58 162.5C754.246 159.7 754.013 157 753.88 154.4C753.746 151.733 753.68 149.233 753.68 146.9V69.8H783.48Z" fill="white"/>
<path d="M164.6 458.4C163.6 460 162.533 461.2 161.4 462C160.333 462.8 158.933 463.2 157.2 463.2C155.667 463.2 154 462.733 152.2 461.8C150.467 460.8 148.467 459.7 146.2 458.5C144 457.3 141.467 456.233 138.6 455.3C135.733 454.3 132.467 453.8 128.8 453.8C122.467 453.8 117.733 455.167 114.6 457.9C111.533 460.567 110 464.2 110 468.8C110 471.733 110.933 474.167 112.8 476.1C114.667 478.033 117.1 479.7 120.1 481.1C123.167 482.5 126.633 483.8 130.5 485C134.433 486.133 138.433 487.433 142.5 488.9C146.567 490.3 150.533 491.967 154.4 493.9C158.333 495.833 161.8 498.3 164.8 501.3C167.867 504.3 170.333 507.967 172.2 512.3C174.067 516.567 175 521.733 175 527.8C175 534.533 173.833 540.833 171.5 546.7C169.167 552.567 165.767 557.7 161.3 562.1C156.9 566.433 151.433 569.867 144.9 572.4C138.433 574.867 131.067 576.1 122.8 576.1C118.267 576.1 113.633 575.633 108.9 574.7C104.233 573.767 99.7 572.467 95.3 570.8C90.9 569.067 86.7667 567.033 82.9 564.7C79.0333 562.367 75.6667 559.767 72.8 556.9L82.8 541.1C83.6 539.967 84.6333 539.033 85.9 538.3C87.2333 537.5 88.6667 537.1 90.2 537.1C92.2 537.1 94.2 537.733 96.2 539C98.2667 540.267 100.567 541.667 103.1 543.2C105.7 544.733 108.667 546.133 112 547.4C115.333 548.667 119.267 549.3 123.8 549.3C129.933 549.3 134.7 547.967 138.1 545.3C141.5 542.567 143.2 538.267 143.2 532.4C143.2 529 142.267 526.233 140.4 524.1C138.533 521.967 136.067 520.2 133 518.8C130 517.4 126.567 516.167 122.7 515.1C118.833 514.033 114.867 512.867 110.8 511.6C106.733 510.267 102.767 508.667 98.9 506.8C95.0333 504.867 91.5667 502.367 88.5 499.3C85.5 496.167 83.0667 492.3 81.2 487.7C79.3333 483.033 78.4 477.3 78.4 470.5C78.4 465.033 79.5 459.7 81.7 454.5C83.9 449.3 87.1333 444.667 91.4 440.6C95.6667 436.533 100.9 433.3 107.1 430.9C113.3 428.433 120.4 427.2 128.4 427.2C132.867 427.2 137.2 427.567 141.4 428.3C145.667 428.967 149.7 430 153.5 431.4C157.3 432.733 160.833 434.367 164.1 436.3C167.433 438.167 170.4 440.3 173 442.7L164.6 458.4ZM347.842 501.6C347.842 512.133 346.009 521.933 342.342 531C338.742 540.067 333.642 547.967 327.042 554.7C320.442 561.367 312.476 566.6 303.142 570.4C293.876 574.2 283.576 576.1 272.242 576.1C260.909 576.1 250.576 574.2 241.242 570.4C231.909 566.6 223.909 561.367 217.242 554.7C210.642 547.967 205.509 540.067 201.842 531C198.242 521.933 196.442 512.133 196.442 501.6C196.442 491.067 198.242 481.267 201.842 472.2C205.509 463.133 210.642 455.267 217.242 448.6C223.909 441.933 231.909 436.7 241.242 432.9C250.576 429.1 260.909 427.2 272.242 427.2C283.576 427.2 293.876 429.133 303.142 433C312.476 436.8 320.442 442.033 327.042 448.7C333.642 455.367 338.742 463.233 342.342 472.3C346.009 481.367 347.842 491.133 347.842 501.6ZM313.242 501.6C313.242 494.4 312.309 487.933 310.442 482.2C308.576 476.4 305.876 471.5 302.342 467.5C298.876 463.5 294.609 460.433 289.542 458.3C284.476 456.167 278.709 455.1 272.242 455.1C265.709 455.1 259.876 456.167 254.742 458.3C249.676 460.433 245.376 463.5 241.842 467.5C238.376 471.5 235.709 476.4 233.842 482.2C231.976 487.933 231.042 494.4 231.042 501.6C231.042 508.867 231.976 515.4 233.842 521.2C235.709 526.933 238.376 531.8 241.842 535.8C245.376 539.8 249.676 542.867 254.742 545C259.876 547.067 265.709 548.1 272.242 548.1C278.709 548.1 284.476 547.067 289.542 545C294.609 542.867 298.876 539.8 302.342 535.8C305.876 531.8 308.576 526.933 310.442 521.2C312.309 515.4 313.242 508.867 313.242 501.6ZM465.533 547.5V574.5H377.733V428.8H411.533V547.5H465.533ZM606.714 428.8L548.314 574.5H517.714L459.314 428.8H486.514C489.447 428.8 491.814 429.5 493.614 430.9C495.414 432.233 496.781 433.967 497.714 436.1L525.914 514.1C527.247 517.5 528.547 521.233 529.814 525.3C531.081 529.3 532.281 533.5 533.414 537.9C534.347 533.5 535.381 529.3 536.514 525.3C537.714 521.233 538.981 517.5 540.314 514.1L568.314 436.1C569.047 434.233 570.347 432.567 572.214 431.1C574.147 429.567 576.514 428.8 579.314 428.8H606.714ZM662.202 454.8V488.8H708.002V513.8H662.202V548.5H722.002V574.5H628.202V428.8H722.002V454.8H662.202Z" fill="white"/>
<g opacity="0.2" filter="url(#filter0_d_257_159)">
<path d="M91.0825 366.272L101.23 366.272L101.23 352.577L108.407 352.577L108.407 366.272L124 366.272L124 375.622L83.9325 375.622L83.9325 349.827L91.0825 349.827L91.0825 366.272ZM103.952 305.521C106.849 305.521 109.544 306.025 112.037 307.034C114.531 308.024 116.703 309.426 118.555 311.241C120.388 313.056 121.827 315.247 122.872 317.814C123.917 320.362 124.44 323.194 124.44 326.311C124.44 329.428 123.917 332.269 122.872 334.836C121.827 337.403 120.388 339.603 118.555 341.436C116.703 343.251 114.531 344.663 112.037 345.671C109.544 346.661 106.849 347.156 103.952 347.156C101.056 347.156 98.3608 346.661 95.8675 345.671C93.3742 344.663 91.2108 343.251 89.3775 341.436C87.5442 339.603 86.105 337.403 85.06 334.836C84.015 332.269 83.4925 329.428 83.4925 326.311C83.4925 323.194 84.0242 320.362 85.0875 317.814C86.1325 315.247 87.5717 313.056 89.405 311.241C91.2383 309.426 93.4017 308.024 95.895 307.034C98.3883 306.025 101.074 305.521 103.952 305.521ZM103.952 315.036C101.972 315.036 100.194 315.293 98.6175 315.806C97.0225 316.319 95.675 317.062 94.575 318.034C93.475 318.987 92.6317 320.16 92.045 321.554C91.4583 322.947 91.165 324.533 91.165 326.311C91.165 328.108 91.4583 329.712 92.045 331.124C92.6317 332.517 93.475 333.699 94.575 334.671C95.675 335.624 97.0225 336.358 98.6175 336.871C100.194 337.384 101.972 337.641 103.952 337.641C105.951 337.641 107.747 337.384 109.342 336.871C110.919 336.358 112.257 335.624 113.357 334.671C114.457 333.699 115.301 332.517 115.887 331.124C116.456 329.712 116.74 328.108 116.74 326.311C116.74 324.533 116.456 322.947 115.887 321.554C115.301 320.16 114.457 318.987 113.357 318.034C112.257 317.062 110.919 316.319 109.342 315.806C107.747 315.293 105.951 315.036 103.952 315.036ZM102.77 287.016C102.77 285.751 102.614 284.679 102.302 283.799C101.972 282.9 101.523 282.167 100.955 281.599C100.387 281.03 99.7267 280.618 98.975 280.361C98.205 280.105 97.38 279.976 96.5 279.976C94.74 279.976 93.365 280.554 92.375 281.709C91.385 282.845 90.89 284.615 90.89 287.016L90.89 290.756L102.77 290.756L102.77 287.016ZM124 267.271L124 275.686C124 277.245 123.413 278.363 122.24 279.041L110.607 285.696C110.112 286.008 109.755 286.356 109.535 286.741C109.297 287.126 109.177 287.676 109.177 288.391L109.177 290.756L124 290.756L124 300.051L83.9325 300.051L83.9325 287.016C83.9325 284.12 84.235 281.654 84.84 279.619C85.4267 277.565 86.2517 275.897 87.315 274.614C88.3783 273.312 89.6342 272.368 91.0825 271.781C92.5308 271.195 94.1075 270.901 95.8125 270.901C97.1142 270.901 98.3425 271.075 99.4975 271.424C100.652 271.772 101.725 272.285 102.715 272.964C103.687 273.642 104.557 274.485 105.327 275.494C106.097 276.484 106.73 277.63 107.225 278.931C107.537 278.326 107.931 277.758 108.407 277.226C108.866 276.695 109.416 276.218 110.057 275.796L124 267.271Z" fill="white"/>
</g>
<g opacity="0.5" filter="url(#filter1_d_257_159)">
<path d="M121.082 364.272L131.23 364.272L131.23 350.577L138.407 350.577L138.407 364.272L154 364.272L154 373.622L113.932 373.622L113.932 347.827L121.082 347.827L121.082 364.272ZM133.952 303.521C136.849 303.521 139.544 304.025 142.037 305.034C144.531 306.024 146.703 307.426 148.555 309.241C150.388 311.056 151.827 313.247 152.872 315.814C153.917 318.362 154.44 321.194 154.44 324.311C154.44 327.428 153.917 330.269 152.872 332.836C151.827 335.403 150.388 337.603 148.555 339.436C146.703 341.251 144.531 342.663 142.037 343.671C139.544 344.661 136.849 345.156 133.952 345.156C131.056 345.156 128.361 344.661 125.867 343.671C123.374 342.663 121.211 341.251 119.377 339.436C117.544 337.603 116.105 335.403 115.06 332.836C114.015 330.269 113.492 327.428 113.492 324.311C113.492 321.194 114.024 318.362 115.087 315.814C116.132 313.247 117.572 311.056 119.405 309.241C121.238 307.426 123.402 306.024 125.895 305.034C128.388 304.025 131.074 303.521 133.952 303.521ZM133.952 313.036C131.972 313.036 130.194 313.293 128.617 313.806C127.022 314.319 125.675 315.062 124.575 316.034C123.475 316.987 122.632 318.16 122.045 319.554C121.458 320.947 121.165 322.533 121.165 324.311C121.165 326.108 121.458 327.712 122.045 329.124C122.632 330.517 123.475 331.699 124.575 332.671C125.675 333.624 127.022 334.358 128.617 334.871C130.194 335.384 131.972 335.641 133.952 335.641C135.951 335.641 137.747 335.384 139.342 334.871C140.919 334.358 142.257 333.624 143.357 332.671C144.457 331.699 145.301 330.517 145.887 329.124C146.456 327.712 146.74 326.108 146.74 324.311C146.74 322.533 146.456 320.947 145.887 319.554C145.301 318.16 144.457 316.987 143.357 316.034C142.257 315.062 140.919 314.319 139.342 313.806C137.747 313.293 135.951 313.036 133.952 313.036ZM132.77 285.016C132.77 283.751 132.614 282.679 132.302 281.799C131.972 280.9 131.523 280.167 130.955 279.599C130.387 279.03 129.727 278.618 128.975 278.361C128.205 278.105 127.38 277.976 126.5 277.976C124.74 277.976 123.365 278.554 122.375 279.709C121.385 280.845 120.89 282.615 120.89 285.016L120.89 288.756L132.77 288.756L132.77 285.016ZM154 265.271L154 273.686C154 275.245 153.413 276.363 152.24 277.041L140.607 283.696C140.112 284.008 139.755 284.356 139.535 284.741C139.297 285.126 139.177 285.676 139.177 286.391L139.177 288.756L154 288.756L154 298.051L113.932 298.051L113.932 285.016C113.932 282.12 114.235 279.654 114.84 277.619C115.427 275.565 116.252 273.897 117.315 272.614C118.378 271.312 119.634 270.368 121.082 269.781C122.531 269.195 124.107 268.901 125.812 268.901C127.114 268.901 128.342 269.075 129.497 269.424C130.652 269.772 131.725 270.285 132.715 270.964C133.687 271.642 134.557 272.485 135.327 273.494C136.097 274.484 136.73 275.63 137.225 276.931C137.537 276.326 137.931 275.758 138.407 275.226C138.866 274.695 139.416 274.218 140.057 273.796L154 265.271Z" fill="white"/>
</g>
<g filter="url(#filter2_d_257_159)">
<path d="M152.082 364.272L162.23 364.272L162.23 350.577L169.407 350.577L169.407 364.272L185 364.272L185 373.622L144.932 373.622L144.932 347.827L152.082 347.827L152.082 364.272ZM164.952 303.521C167.849 303.521 170.544 304.025 173.037 305.034C175.531 306.024 177.703 307.426 179.555 309.241C181.388 311.056 182.827 313.247 183.872 315.814C184.917 318.362 185.44 321.194 185.44 324.311C185.44 327.428 184.917 330.269 183.872 332.836C182.827 335.403 181.388 337.603 179.555 339.436C177.703 341.251 175.531 342.663 173.037 343.671C170.544 344.661 167.849 345.156 164.952 345.156C162.056 345.156 159.361 344.661 156.867 343.671C154.374 342.663 152.211 341.251 150.377 339.436C148.544 337.603 147.105 335.403 146.06 332.836C145.015 330.269 144.492 327.428 144.492 324.311C144.492 321.194 145.024 318.362 146.087 315.814C147.132 313.247 148.572 311.056 150.405 309.241C152.238 307.426 154.402 306.024 156.895 305.034C159.388 304.025 162.074 303.521 164.952 303.521ZM164.952 313.036C162.972 313.036 161.194 313.293 159.617 313.806C158.022 314.319 156.675 315.062 155.575 316.034C154.475 316.987 153.632 318.16 153.045 319.554C152.458 320.947 152.165 322.533 152.165 324.311C152.165 326.108 152.458 327.712 153.045 329.124C153.632 330.517 154.475 331.699 155.575 332.671C156.675 333.624 158.022 334.358 159.617 334.871C161.194 335.384 162.972 335.641 164.952 335.641C166.951 335.641 168.747 335.384 170.342 334.871C171.919 334.358 173.257 333.624 174.357 332.671C175.457 331.699 176.301 330.517 176.887 329.124C177.456 327.712 177.74 326.108 177.74 324.311C177.74 322.533 177.456 320.947 176.887 319.554C176.301 318.16 175.457 316.987 174.357 316.034C173.257 315.062 171.919 314.319 170.342 313.806C168.747 313.293 166.951 313.036 164.952 313.036ZM163.77 285.016C163.77 283.751 163.614 282.679 163.302 281.799C162.972 280.9 162.523 280.167 161.955 279.599C161.387 279.03 160.727 278.618 159.975 278.361C159.205 278.105 158.38 277.976 157.5 277.976C155.74 277.976 154.365 278.554 153.375 279.709C152.385 280.845 151.89 282.615 151.89 285.016L151.89 288.756L163.77 288.756L163.77 285.016ZM185 265.271L185 273.686C185 275.245 184.413 276.363 183.24 277.041L171.607 283.696C171.112 284.008 170.755 284.356 170.535 284.741C170.297 285.126 170.177 285.676 170.177 286.391L170.177 288.756L185 288.756L185 298.051L144.932 298.051L144.932 285.016C144.932 282.12 145.235 279.654 145.84 277.619C146.427 275.565 147.252 273.897 148.315 272.614C149.378 271.312 150.634 270.368 152.082 269.781C153.531 269.195 155.107 268.901 156.812 268.901C158.114 268.901 159.342 269.075 160.497 269.424C161.652 269.772 162.725 270.285 163.715 270.964C164.687 271.642 165.557 272.485 166.327 273.494C167.097 274.484 167.73 275.63 168.225 276.931C168.537 276.326 168.931 275.758 169.407 275.226C169.866 274.695 170.416 274.218 171.057 273.796L185 265.271Z" fill="white"/>
</g>
<g filter="url(#filter3_d_257_159)">
<path d="M764.112 561.462L777.95 561.462L777.95 542.787L787.737 542.787L787.737 561.462L809 561.462L809 574.212L754.362 574.212L754.362 539.037L764.112 539.037L764.112 561.462ZM781.662 478.62C785.612 478.62 789.287 479.307 792.687 480.682C796.087 482.032 799.05 483.945 801.575 486.42C804.075 488.895 806.037 491.882 807.462 495.382C808.887 498.857 809.6 502.72 809.6 506.97C809.6 511.22 808.887 515.095 807.462 518.595C806.037 522.095 804.075 525.095 801.575 527.595C799.05 530.07 796.087 531.995 792.687 533.37C789.287 534.72 785.612 535.395 781.662 535.395C777.712 535.395 774.037 534.72 770.637 533.37C767.237 531.995 764.287 530.07 761.787 527.595C759.287 525.095 757.325 522.095 755.9 518.595C754.475 515.095 753.762 511.22 753.762 506.97C753.762 502.72 754.487 498.857 755.937 495.382C757.362 491.882 759.325 488.895 761.825 486.42C764.325 483.945 767.275 482.032 770.675 480.682C774.075 479.307 777.737 478.62 781.662 478.62ZM781.662 491.595C778.962 491.595 776.537 491.945 774.387 492.645C772.212 493.345 770.375 494.357 768.875 495.682C767.375 496.982 766.225 498.582 765.425 500.482C764.625 502.382 764.225 504.545 764.225 506.97C764.225 509.42 764.625 511.607 765.425 513.532C766.225 515.432 767.375 517.045 768.875 518.37C770.375 519.67 772.212 520.67 774.387 521.37C776.537 522.07 778.962 522.42 781.662 522.42C784.387 522.42 786.837 522.07 789.012 521.37C791.162 520.67 792.987 519.67 794.487 518.37C795.987 517.045 797.137 515.432 797.937 513.532C798.712 511.607 799.1 509.42 799.1 506.97C799.1 504.545 798.712 502.382 797.937 500.482C797.137 498.582 795.987 496.982 794.487 495.682C792.987 494.357 791.162 493.345 789.012 492.645C786.837 491.945 784.387 491.595 781.662 491.595ZM780.05 453.386C780.05 451.661 779.837 450.198 779.412 448.998C778.962 447.773 778.35 446.773 777.575 445.998C776.8 445.223 775.9 444.661 774.875 444.311C773.825 443.961 772.7 443.786 771.5 443.786C769.1 443.786 767.225 444.573 765.875 446.148C764.525 447.698 763.85 450.111 763.85 453.386L763.85 458.486L780.05 458.486L780.05 453.386ZM809 426.461L809 437.936C809 440.061 808.2 441.586 806.6 442.511L790.737 451.586C790.062 452.011 789.575 452.486 789.275 453.011C788.95 453.536 788.787 454.286 788.787 455.261L788.787 458.486L809 458.486L809 471.161L754.362 471.161L754.362 453.386C754.362 449.436 754.775 446.073 755.6 443.298C756.4 440.498 757.525 438.223 758.975 436.473C760.425 434.698 762.137 433.411 764.112 432.611C766.087 431.811 768.237 431.411 770.562 431.411C772.337 431.411 774.012 431.648 775.587 432.123C777.162 432.598 778.625 433.298 779.975 434.223C781.3 435.148 782.487 436.298 783.537 437.673C784.587 439.023 785.45 440.586 786.125 442.361C786.55 441.536 787.087 440.761 787.737 440.036C788.362 439.311 789.112 438.661 789.987 438.086L809 426.461Z" fill="white"/>
</g>
<path d="M238.075 377.5H212.575V268.225H238.075V377.5ZM362.057 268.225V377.5H348.857C346.907 377.5 345.257 377.2 343.907 376.6C342.607 375.95 341.307 374.85 340.007 373.3L288.482 308.125C288.682 310.075 288.807 311.975 288.857 313.825C288.957 315.625 289.007 317.325 289.007 318.925V377.5H266.657V268.225H280.007C281.107 268.225 282.032 268.275 282.782 268.375C283.532 268.475 284.207 268.675 284.807 268.975C285.407 269.225 285.982 269.6 286.532 270.1C287.082 270.6 287.707 271.275 288.407 272.125L340.382 337.75C340.132 335.65 339.957 333.625 339.857 331.675C339.757 329.675 339.707 327.8 339.707 326.05V268.225H362.057ZM469.284 288.325H438.534V377.5H413.184V288.325H382.434V268.225H469.284V288.325ZM515.165 287.725V313.225H549.515V331.975H515.165V358H560.015V377.5H489.665V268.225H560.015V287.725H515.165ZM678.551 268.225V377.5H665.351C663.401 377.5 661.751 377.2 660.401 376.6C659.101 375.95 657.801 374.85 656.501 373.3L604.976 308.125C605.176 310.075 605.301 311.975 605.351 313.825C605.451 315.625 605.501 317.325 605.501 318.925V377.5H583.151V268.225H596.501C597.601 268.225 598.526 268.275 599.276 268.375C600.026 268.475 600.701 268.675 601.301 268.975C601.901 269.225 602.476 269.6 603.026 270.1C603.576 270.6 604.201 271.275 604.901 272.125L656.876 337.75C656.626 335.65 656.451 333.625 656.351 331.675C656.251 329.675 656.201 327.8 656.201 326.05V268.225H678.551ZM785.778 288.325H755.028V377.5H729.678V288.325H698.928V268.225H785.778V288.325Z" fill="white"/>
<path d="M107.1 765.5H73.1V619.8H107.1V765.5ZM305.009 619.8V765.5H275.209V681.7C275.209 679.767 275.243 677.667 275.309 675.4C275.443 673.133 275.643 670.833 275.909 668.5L237.209 743.4C236.009 745.733 234.376 747.5 232.309 748.7C230.309 749.9 228.009 750.5 225.409 750.5H220.809C218.209 750.5 215.876 749.9 213.809 748.7C211.809 747.5 210.209 745.733 209.009 743.4L170.309 668.3C170.509 670.7 170.676 673.067 170.809 675.4C170.943 677.667 171.009 679.767 171.009 681.7V765.5H141.209V619.8H167.009C168.476 619.8 169.743 619.833 170.809 619.9C171.943 619.967 172.943 620.167 173.809 620.5C174.676 620.833 175.443 621.367 176.109 622.1C176.843 622.767 177.543 623.733 178.209 625L215.709 698.9C217.043 701.433 218.309 704.067 219.509 706.8C220.776 709.533 221.976 712.333 223.109 715.2C224.243 712.267 225.409 709.4 226.609 706.6C227.876 703.8 229.209 701.133 230.609 698.6L268.009 625C268.676 623.733 269.343 622.767 270.009 622.1C270.743 621.367 271.543 620.833 272.409 620.5C273.276 620.167 274.243 619.967 275.309 619.9C276.443 619.833 277.743 619.8 279.209 619.8H305.009ZM390.602 691.3C399.402 691.3 405.735 689.2 409.602 685C413.468 680.8 415.402 674.933 415.402 667.4C415.402 664.067 414.902 661.033 413.902 658.3C412.902 655.567 411.368 653.233 409.302 651.3C407.302 649.3 404.735 647.767 401.602 646.7C398.535 645.633 394.868 645.1 390.602 645.1H373.002V691.3H390.602ZM390.602 619.8C400.868 619.8 409.668 621.033 417.002 623.5C424.402 625.9 430.468 629.233 435.202 633.5C440.002 637.767 443.535 642.8 445.802 648.6C448.068 654.4 449.202 660.667 449.202 667.4C449.202 674.667 448.035 681.333 445.702 687.4C443.368 693.467 439.802 698.667 435.002 703C430.202 707.333 424.102 710.733 416.702 713.2C409.368 715.6 400.668 716.8 390.602 716.8H373.002V765.5H339.202V619.8H390.602ZM539.194 709.8L525.694 669.9C524.694 667.367 523.627 664.4 522.494 661C521.36 657.533 520.227 653.8 519.094 649.8C518.094 653.867 517.027 657.633 515.894 661.1C514.76 664.567 513.694 667.567 512.694 670.1L499.294 709.8H539.194ZM592.894 765.5H566.694C563.76 765.5 561.394 764.833 559.594 763.5C557.794 762.1 556.427 760.333 555.494 758.2L546.894 732.8H491.494L482.894 758.2C482.16 760.067 480.827 761.767 478.894 763.3C477.027 764.767 474.694 765.5 471.894 765.5H445.494L501.894 619.8H536.494L592.894 765.5ZM703.698 727.8C704.498 727.8 705.298 727.967 706.098 728.3C706.898 728.567 707.665 729.067 708.398 729.8L721.798 743.9C715.932 751.567 708.565 757.367 699.698 761.3C690.898 765.167 680.465 767.1 668.398 767.1C657.332 767.1 647.398 765.233 638.598 761.5C629.865 757.7 622.432 752.5 616.298 745.9C610.232 739.233 605.565 731.367 602.298 722.3C599.032 713.167 597.398 703.267 597.398 692.6C597.398 681.733 599.165 671.767 602.698 662.7C606.232 653.567 611.198 645.7 617.598 639.1C623.998 632.5 631.665 627.367 640.598 623.7C649.532 620.033 659.365 618.2 670.098 618.2C675.565 618.2 680.698 618.7 685.498 619.7C690.365 620.633 694.898 621.967 699.098 623.7C703.298 625.367 707.165 627.4 710.698 629.8C714.232 632.2 717.365 634.8 720.098 637.6L708.698 652.9C707.965 653.833 707.098 654.7 706.098 655.5C705.098 656.233 703.698 656.6 701.898 656.6C700.698 656.6 699.565 656.333 698.498 655.8C697.432 655.267 696.298 654.633 695.098 653.9C693.898 653.1 692.565 652.267 691.098 651.4C689.698 650.467 687.998 649.633 685.998 648.9C684.065 648.1 681.765 647.433 679.098 646.9C676.498 646.367 673.432 646.1 669.898 646.1C664.298 646.1 659.165 647.133 654.498 649.2C649.898 651.267 645.898 654.3 642.498 658.3C639.165 662.233 636.565 667.1 634.698 672.9C632.898 678.633 631.998 685.2 631.998 692.6C631.998 700.067 632.998 706.7 634.998 712.5C637.065 718.3 639.832 723.2 643.298 727.2C646.832 731.133 650.932 734.133 655.598 736.2C660.265 738.267 665.265 739.3 670.598 739.3C673.665 739.3 676.465 739.167 678.998 738.9C681.532 738.567 683.898 738.067 686.098 737.4C688.298 736.667 690.365 735.733 692.298 734.6C694.232 733.4 696.198 731.9 698.198 730.1C698.998 729.433 699.865 728.9 700.798 728.5C701.732 728.033 702.698 727.8 703.698 727.8ZM847.253 646.6H806.253V765.5H772.453V646.6H731.453V619.8H847.253V646.6Z" fill="white"/>
<path d="M100.5 2.5H2.5V114.5" stroke="white" stroke-width="5"/>
<path d="M792 838.5L890 838.5L890 726.5" stroke="white" stroke-width="5"/>
<defs>
<filter id="filter0_d_257_159" x="79.4924" y="267.271" width="48.9475" height="116.352" filterUnits="userSpaceOnUse" color-interpolation-filters="sRGB">
<feFlood flood-opacity="0" result="BackgroundImageFix"/>
<feColorMatrix in="SourceAlpha" type="matrix" values="0 0 0 0 0 0 0 0 0 0 0 0 0 0 0 0 0 0 127 0" result="hardAlpha"/>
<feOffset dy="4"/>
<feGaussianBlur stdDeviation="2"/>
<feComposite in2="hardAlpha" operator="out"/>
<feColorMatrix type="matrix" values="0 0 0 0 0 0 0 0 0 0 0 0 0 0 0 0 0 0 0.25 0"/>
<feBlend mode="normal" in2="BackgroundImageFix" result="effect1_dropShadow_257_159"/>
<feBlend mode="normal" in="SourceGraphic" in2="effect1_dropShadow_257_159" result="shape"/>
</filter>
<filter id="filter1_d_257_159" x="109.492" y="265.271" width="48.9475" height="116.352" filterUnits="userSpaceOnUse" color-interpolation-filters="sRGB">
<feFlood flood-opacity="0" result="BackgroundImageFix"/>
<feColorMatrix in="SourceAlpha" type="matrix" values="0 0 0 0 0 0 0 0 0 0 0 0 0 0 0 0 0 0 127 0" result="hardAlpha"/>
<feOffset dy="4"/>
<feGaussianBlur stdDeviation="2"/>
<feComposite in2="hardAlpha" operator="out"/>
<feColorMatrix type="matrix" values="0 0 0 0 0 0 0 0 0 0 0 0 0 0 0 0 0 0 0.25 0"/>
<feBlend mode="normal" in2="BackgroundImageFix" result="effect1_dropShadow_257_159"/>
<feBlend mode="normal" in="SourceGraphic" in2="effect1_dropShadow_257_159" result="shape"/>
</filter>
<filter id="filter2_d_257_159" x="140.492" y="265.271" width="48.9475" height="116.352" filterUnits="userSpaceOnUse" color-interpolation-filters="sRGB">
<feFlood flood-opacity="0" result="BackgroundImageFix"/>
<feColorMatrix in="SourceAlpha" type="matrix" values="0 0 0 0 0 0 0 0 0 0 0 0 0 0 0 0 0 0 127 0" result="hardAlpha"/>
<feOffset dy="4"/>
<feGaussianBlur stdDeviation="2"/>
<feComposite in2="hardAlpha" operator="out"/>
<feColorMatrix type="matrix" values="0 0 0 0 0 0 0 0 0 0 0 0 0 0 0 0 0 0 0.25 0"/>
<feBlend mode="normal" in2="BackgroundImageFix" result="effect1_dropShadow_257_159"/>
<feBlend mode="normal" in="SourceGraphic" in2="effect1_dropShadow_257_159" result="shape"/>
</filter>
<filter id="filter3_d_257_159" x="749.763" y="426.461" width="63.8374" height="155.752" filterUnits="userSpaceOnUse" color-interpolation-filters="sRGB">
<feFlood flood-opacity="0" result="BackgroundImageFix"/>
<feColorMatrix in="SourceAlpha" type="matrix" values="0 0 0 0 0 0 0 0 0 0 0 0 0 0 0 0 0 0 127 0" result="hardAlpha"/>
<feOffset dy="4"/>
<feGaussianBlur stdDeviation="2"/>
<feComposite in2="hardAlpha" operator="out"/>
<feColorMatrix type="matrix" values="0 0 0 0 0 0 0 0 0 0 0 0 0 0 0 0 0 0 0.25 0"/>
<feBlend mode="normal" in2="BackgroundImageFix" result="effect1_dropShadow_257_159"/>
<feBlend mode="normal" in="SourceGraphic" in2="effect1_dropShadow_257_159" result="shape"/>
</filter>
</defs>
</svg>
